<svg xmlns="http://www.w3.org/2000/svg" viewBox="0 0 921.53 232.93">
    <g id="Layer_2" data-name="Layer 2">
        <g id="Layer_2-2" data-name="Layer 2">
            <g class="cls-1">
                <path class="cls-2" d="M388,112.05c-1-.16-2.52-.33-4.62-.49s-4.14-.24-6.08-.24q-18.5,0-29.92,8.63T335.9,143.42q0,15.09,11.31,24.32T376.27,177c2.44,0,4.78-.08,7.06-.24s4.05-.32,5.35-.49v51.81c-3.08.48-6.25.88-9.49,1.21s-6.81.49-10.7.49q-28.69,0-50.22-10.58t-33.44-29.92q-11.93-19.33-11.92-45.6,0-25.77,12.28-44.87t34.54-29.67Q342,58.55,372.14,58.54a76.26,76.26,0,0,1,8.27.49c2.92.32,5.43.65,7.54,1ZM296.5.42h39.4l14.11,18,14.1-18h39.4l-38.91,44H335.42Z"/>
                <path class="cls-2" d="M474,232.92q-22.86,0-39.64-8t-25.9-22.61q-9.12-14.59-9.12-34.54,0-18.24,7.78-32.1a56.4,56.4,0,0,1,21.65-21.77q13.86-7.91,31.86-7.9,16.77,0,29.55,7.17A50.77,50.77,0,0,1,510,133q7.05,12.66,7.05,29.67,0,3.17-.12,6.93a25.77,25.77,0,0,1-.61,5.48L450,184.77q6.55,9.48,27.23,9.48A98.79,98.79,0,0,0,492.4,193a142.73,142.73,0,0,0,15.2-3.16v37.7A67.54,67.54,0,0,1,492,231.46,122.41,122.41,0,0,1,474,232.92Zm2.19-78.8q-2.43-10.94-14.59-10.94a17,17,0,0,0-11.8,4.25q-4.74,4.26-5.71,11.8Z"/>
                <path class="cls-2" d="M529.74,53h47.18v86.82l27.48-28.94h54.72l-37.21,36.72,35.51,80.51H607.56l-19.94-47.43-10.7,10.22v37.21H529.74Z"/>
                <path class="cls-2" d="M658.39,148.28h69.8v38.43h-69.8Z"/>
                <path class="cls-2" d="M748.25,55.38q7.17-7.05,18.36-7.05T785,55.38q7.18,7,7.18,18T785,91.25q-7.17,6.93-18.36,6.93t-18.36-6.93q-7.17-6.93-7.17-17.87T748.25,55.38ZM743,110.83H790.2V228.06H743Z"/>
                <path class="cls-2" d="M808.93,110.83h44.75V122.5a30.42,30.42,0,0,1,12.52-11.79,40.7,40.7,0,0,1,19.1-4.26q17.26,0,26.75,9.85t9.48,28.34v83.42H874.35V158.74q0-10.45-9-10.46-7.05,0-9.24,5.84v73.94H808.93Z"/>
            </g>
            <g id="noun_covid_3867300" data-name="noun covid 3867300">
                <g id="Path_1" data-name="Path 1">
                    <path class="cls-2" d="M188.24,107.49H174a57.9,57.9,0,0,0-10.53-25.37L181.12,64.5a9,9,0,0,0-12.69-12.69h0L150.81,69.44a57.83,57.83,0,0,0-25.37-10.53V44.69a9,9,0,0,0-18,0V58.91A57.78,57.78,0,0,0,82.12,69.44L60,47.32A9,9,0,1,0,47.32,60L69.44,82.12a58,58,0,0,0-10.53,25.37H44.69a9,9,0,0,0,0,18H58.91a57.83,57.83,0,0,0,10.53,25.37L51.81,168.43a9,9,0,0,0,12.68,12.69l17.63-17.63A58,58,0,0,0,107.49,174v14.22a9,9,0,0,0,17.94,0h0V174a58,58,0,0,0,25.37-10.53l22.13,22.12a9,9,0,0,0,12.68-12.69l-22.12-22.11A58,58,0,0,0,174,125.44h14.22a9,9,0,0,0,0-18Zm-71.78,49.35a40.38,40.38,0,1,1,40.38-40.38h0A40.38,40.38,0,0,1,116.46,156.84Z"/>
                    <path class="cls-2" d="M116.46,199.34h0a11.1,11.1,0,0,1-11.09-11.1V175.81a60.4,60.4,0,0,1-23-9.55L66,182.62a11.09,11.09,0,1,1-15.69-15.69l16.36-16.36a60.35,60.35,0,0,1-9.55-23H44.69a11.1,11.1,0,1,1,0-22.19H57.12a60.29,60.29,0,0,1,9.55-23L45.82,61.5a11.08,11.08,0,0,1,0-15.68,11.1,11.1,0,0,1,15.69,0L82.36,66.67a60.35,60.35,0,0,1,23-9.55V44.69A11.11,11.11,0,0,1,116.46,33.6h0a11.1,11.1,0,0,1,11.1,11.09V57.12a60.35,60.35,0,0,1,23,9.55l16.36-16.36a11.1,11.1,0,0,1,15.69,0,11.09,11.09,0,0,1,0,15.69L166.26,82.36a60.29,60.29,0,0,1,9.55,23h12.43a11.1,11.1,0,0,1,0,22.19H175.81a60.35,60.35,0,0,1-9.55,23l20.85,20.85a11.1,11.1,0,0,1-7.84,18.94h0a11,11,0,0,1-7.85-3.25l-20.85-20.85a60.42,60.42,0,0,1-23,9.55v12.43a11.11,11.11,0,0,1-11.1,11.1ZM81.91,160.7l1.47,1.08a56,56,0,0,0,24.44,10.14l1.79.28v16a6.86,6.86,0,0,0,6.85,6.85h0a6.85,6.85,0,0,0,6.85-6.84V172.2l1.8-.28a56.1,56.1,0,0,0,24.44-10.14L151,160.7l23.41,23.41a6.84,6.84,0,1,0,9.68-9.68L160.71,151l1.07-1.47a55.94,55.94,0,0,0,10.14-24.44l.28-1.8h16a6.85,6.85,0,0,0,0-13.69h-16l-.28-1.8a55.89,55.89,0,0,0-10.14-24.44l-1.07-1.47L179.62,63a6.85,6.85,0,0,0-9.69-9.68L151,72.23l-1.47-1.08A55.94,55.94,0,0,0,125.11,61l-1.8-.28v-16a6.85,6.85,0,0,0-6.85-6.84h0a6.85,6.85,0,0,0-6.84,6.84v16l-1.8.28A55.94,55.94,0,0,0,83.38,71.15l-1.47,1.07L58.5,48.82a6.84,6.84,0,0,0-9.68,9.68L72.23,81.91l-1.08,1.47A56,56,0,0,0,61,107.82l-.28,1.8h-16a6.85,6.85,0,1,0,0,13.69h16l.28,1.8a55.94,55.94,0,0,0,10.14,24.44L72.22,151,53.31,169.93A6.85,6.85,0,0,0,63,179.62ZM116.46,159a42.5,42.5,0,1,1,42.5-42.5A42.54,42.54,0,0,1,116.46,159Zm0-80.75a38.26,38.26,0,1,0,38.26,38.25A38.29,38.29,0,0,0,116.46,78.21Z"/>
                </g>
                <g id="Path_2" data-name="Path 2">
                    <path class="cls-2" d="M116.47,107.49a9,9,0,0,0,0-17.94h0a27,27,0,0,0-26.92,26.91,9,9,0,1,0,17.94,0h0A9,9,0,0,1,116.47,107.49Z"/>
                </g>
                <g id="Path_3" data-name="Path 3">
                    <path class="cls-2" d="M134.41,107.49a9,9,0,0,0-9,9h0a9,9,0,0,1-9,9,9,9,0,1,0,0,17.94h0a27,27,0,0,0,26.92-26.92A9,9,0,0,0,134.41,107.49Z"/>
                </g>
            </g>
            <g id="noun_Scanner_3885540" data-name="noun Scanner 3885540">
                <g id="Path_4" data-name="Path 4">
                    <path class="cls-3" d="M9.91,47.2A37.3,37.3,0,0,1,47.2,9.91H68.52a5.33,5.33,0,0,1,0,10.65H47.2A26.63,26.63,0,0,0,20.56,47.19h0V68.52a5.33,5.33,0,0,1-10.65,0Z"/>
                    <path class="cls-2" d="M15.25,83.57h-.54A15.29,15.29,0,0,1,0,68.86V47.2A47.26,47.26,0,0,1,47.2,0H68.86a15.23,15.23,0,0,1,0,30.45H47.2A16.71,16.71,0,0,0,30.47,47.19V68.86A15.24,15.24,0,0,1,15.25,83.57Z"/>
                </g>
                <g id="Path_6" data-name="Path 6">
                    <path class="cls-3" d="M9.91,185.72A37.3,37.3,0,0,0,47.2,223H68.52a5.33,5.33,0,0,0,.36-10.65H47.2a26.63,26.63,0,0,1-26.64-26.63V164.41a5.33,5.33,0,0,0-10.65-.36v21.67Z"/>
                    <path class="cls-2" d="M68.71,232.93H47.2A47.26,47.26,0,0,1,0,185.72V164.54c0-.28,0-.55,0-.83a15.24,15.24,0,0,1,30.46.83v21.18A16.71,16.71,0,0,0,47.2,202.46h22a15.23,15.23,0,0,1-.51,30.46Z"/>
                </g>
                <g id="Path_7" data-name="Path 7">
                    <path class="cls-3" d="M212.36,73.84V47.2a26.62,26.62,0,0,0-26.63-26.64H159.09a5.33,5.33,0,1,1-.37-10.65h27A37.3,37.3,0,0,1,223,47.2V73.84a5.33,5.33,0,0,1-10.65.37v-.37Z"/>
                    <path class="cls-2" d="M217.68,89.26a15.14,15.14,0,0,1-10.38-4.09A16.31,16.31,0,0,1,206,83.75h-3.5V47.2a16.75,16.75,0,0,0-16.73-16.73H159.22A15.24,15.24,0,0,1,158.38,0h27.35a47.26,47.26,0,0,1,47.2,47.2V73.72a15.24,15.24,0,0,1-14.71,15.53Z"/>
                </g>
                <g id="Path_8" data-name="Path 8">
                    <path class="cls-3" d="M212.36,159.09v26.64a26.63,26.63,0,0,1-26.63,26.63H159.09a5.33,5.33,0,1,0-.37,10.65,2.28,2.28,0,0,0,.37,0h26.64A37.29,37.29,0,0,0,223,185.73V159.09a5.33,5.33,0,1,0-10.65-.37v.37Z"/>
                    <path class="cls-2" d="M158.9,232.92h-.57a15.23,15.23,0,0,1,.89-30.45h26.51a16.76,16.76,0,0,0,16.73-16.73V149.18H206a14.81,14.81,0,0,1,1.33-1.42,15.24,15.24,0,0,1,25.63,11.46v26.51a47.26,47.26,0,0,1-47.2,47.19H158.9Z"/>
                </g>
            </g>
        </g>
    </g>
</svg>