<svg xmlns="http://www.w3.org/2000/svg" width="368.515" height="330.852" viewBox="0 0 368.515 330.852">
  <g id="Group_7" data-name="Group 7" transform="translate(-2.201)">
    <ellipse id="Ellipse_2" data-name="Ellipse 2" cx="38.912" cy="79.396" rx="38.912" ry="79.396" transform="translate(11.505 55.467)" fill="#fff"/>
    <path id="Path_29" data-name="Path 29" d="M265.578,309.053c1.941-34.56,5.852-57.9,5.891-58.136l-.849-.144c-.039.232-3.957,23.614-5.9,58.219-1.794,31.938-2.227,80.247,5.9,129.015l.849-.141C263.355,389.18,263.787,340.944,265.578,309.053Z" transform="translate(-215.519 -173.366)" fill="#3f3d56"/>
    <rect id="Rectangle_6" data-name="Rectangle 6" width="39.905" height="0.861" transform="translate(50.013 137.592) rotate(-28.157)" fill="#3f3d56"/>
    <rect id="Rectangle_7" data-name="Rectangle 7" width="0.861" height="39.905" transform="translate(12.87 128.959) rotate(-61.858)" fill="#3f3d56"/>
    <ellipse id="Ellipse_3" data-name="Ellipse 3" cx="50.482" cy="103.002" rx="50.482" ry="103.002" transform="translate(269.753 0)" fill="#fdfdfd"/>
    <path id="Path_30" data-name="Path 30" d="M925.874,206.443c2.519-44.843,7.593-75.134,7.644-75.434l-.8-.136c-.051.3-5.132,30.627-7.654,75.512-2.327,41.427-2.889,104.088,7.654,167.341l.8-.134C922.989,310.416,923.55,247.825,925.874,206.443Z" transform="translate(-606.253 -90.385)" fill="#3f3d56"/>
    <rect id="Rectangle_8" data-name="Rectangle 8" width="51.77" height="0.816" transform="translate(319.782 106.676) rotate(-28.157)" fill="#3f3d56"/>
    <rect id="Rectangle_9" data-name="Rectangle 9" width="0.816" height="51.77" transform="translate(271.596 95.211) rotate(-61.858)" fill="#3f3d56"/>
    <ellipse id="Ellipse_4" data-name="Ellipse 4" cx="18.861" cy="38.484" rx="18.861" ry="38.484" transform="translate(240.552 156.933)" fill="#fff"/>
    <path id="Path_31" data-name="Path 31" d="M754.951,501.217l.112.209,17.053-9.128-.385-.72-16.745,8.962a287.156,287.156,0,0,1,2.86-28.729l-.8-.136a298.063,298.063,0,0,0-3.093,33.515l-16.888-9.039-.385.72L753.73,506l.2-.381c-.64,16.237-.281,36.54,3.109,56.879l.8-.134C754.151,540.188,754.07,518.053,754.951,501.217Z" transform="translate(-495.555 -300.141)" fill="#3f3d56"/>
    <path id="Path_33" data-name="Path 33" d="M462.2,717.136s.282-5.9,6.058-5.217" transform="translate(-333.064 -446.333)" fill="#3f3d56"/>
    <path id="Path_90" data-name="Path 90" d="M2.891,0A2.891,2.891,0,1,1,0,2.891,2.891,2.891,0,0,1,2.891,0Z" transform="translate(124.613 259.403)" fill="#70c041"/>
    <rect id="Rectangle_10" data-name="Rectangle 10" width="0.816" height="5.712" transform="translate(127.034 267.162)" fill="#3f3d56"/>
    <path id="Path_34" data-name="Path 34" d="M720.2,720.136s.282-5.9,6.058-5.217" transform="translate(-485.801 -448.109)" fill="#3f3d56"/>
    <circle id="Ellipse_6" data-name="Ellipse 6" cx="2.891" cy="2.891" r="2.891" transform="translate(229.877 260.627)" fill="#70c041"/>
    <rect id="Rectangle_11" data-name="Rectangle 11" width="0.816" height="5.712" transform="translate(232.297 268.386)" fill="#3f3d56"/>
    <path id="Path_35" data-name="Path 35" d="M295.2,695.136s.282-5.9,6.058-5.217" transform="translate(-227.546 -400.486)" fill="#3f3d56"/>
    <circle id="Ellipse_7" data-name="Ellipse 7" cx="2.891" cy="2.891" r="2.891" transform="translate(63.131 283.25)" fill="#70c041"/>
    <rect id="Rectangle_12" data-name="Rectangle 12" width="0.816" height="5.712" transform="translate(65.552 291.009)" fill="#3f3d56"/>
    <path id="Path_36" data-name="Path 36" d="M404.2,676.136s.282-5.9,6.058-5.217" transform="translate(-227.432 -385.366)" fill="#3f3d56"/>
    <circle id="Ellipse_8" data-name="Ellipse 8" cx="2.891" cy="2.891" r="2.891" transform="translate(172.245 279.37)" fill="#70c041"/>
    <rect id="Rectangle_13" data-name="Rectangle 13" width="0.816" height="5.712" transform="translate(174.666 287.129)" fill="#3f3d56"/>
    <path id="Path_37" data-name="Path 37" d="M677.2,703.136s.282-5.9,6.058-5.217" transform="translate(-460.345 -435.045)" fill="#3f3d56"/>
    <circle id="Ellipse_9" data-name="Ellipse 9" cx="2.891" cy="2.891" r="2.891" transform="translate(212.333 256.691)" fill="#70c041"/>
    <rect id="Rectangle_14" data-name="Rectangle 14" width="0.816" height="5.712" transform="translate(214.753 264.45)" fill="#3f3d56"/>
    <path id="Path_38" data-name="Path 38" d="M968.738,681.78l16.793,24.9L969.9,722.313l-2.027-4.053,3.474-8.107s-.579-7.528-2.606-9.554-11-14.187-11-14.187Z" transform="translate(-626.423 -428.524)" fill="#ffb8b8"/>
    <path id="Path_39" data-name="Path 39" d="M891.86,484.5s3.184,5.04-3.475,26.754c0,0,31.061,52.423,26.139,55.9S896.283,578.318,892.809,576s-28.743-80.786-28.743-80.786Z" transform="translate(-570.97 -311.736)" fill="#2f2e41"/>
    <path id="Path_40" data-name="Path 40" d="M982.4,731.808l5.067,5.067c2.606,2.606,4.343,6.37-.579,9.554s-22,15.055-27.795,11.292,6.949-7.238,6.949-7.238,2.106-7.81,3.225-6.077,1.118,5.208,1.118,5.208Z" transform="translate(-626.333 -458.14)" fill="#2f2e41"/>
    <path id="Path_41" data-name="Path 41" d="M821.272,711.351s-9.265,17.082-9.265,19.109.579,7.817.579,7.817l-17.661,4.343-6.08-2.9,2.027-5.211s11-3.764,13.318-11,4.922-14.766,4.922-14.766Z" transform="translate(-526.439 -444.487)" fill="#ffb8b8"/>
    <circle id="Ellipse_10" data-name="Ellipse 10" cx="12.16" cy="12.16" r="12.16" transform="translate(293.386 72.592)" fill="#ffb8b8"/>
    <path id="Path_42" data-name="Path 42" d="M886.774,288.442l5.806,16.681,12.724-5.679s-8.686-13.318-8.686-15.056Z" transform="translate(-584.413 -193.267)" fill="#ffb8b8"/>
    <path id="Path_43" data-name="Path 43" d="M852.032,439.8h15.345s11,16.792,4.632,34.453a91.557,91.557,0,0,0-2.91,10.972c-2.223,10.3-4.435,24.254-6.7,37.075-3.185,18.01-6.479,33.787-10.06,34.074-7.238.579-21.313.482-21.313-2.413s9.428-86.657,9.428-86.657l2.027-3.474.383-15.134A9.128,9.128,0,0,1,852.032,439.8Z" transform="translate(-551.408 -285.269)" fill="#2f2e41"/>
    <path id="Path_44" data-name="Path 44" d="M795.479,761.613s3.33,5.646,2.461,9.7-2.316,3.474-8.686,4.053-28.084.579-28.084-3.475,16.939-9.317,17.011-7.7.651,4.8-1.087,5.382-.145.145-.145.145Z" transform="translate(-510.055 -475.785)" fill="#2f2e41"/>
    <path id="Path_45" data-name="Path 45" d="M868.353,524.4s-1.26,20.567-9.66,14.444,3.274-17.183,3.274-17.183Z" transform="translate(-565.989 -333.731)" fill="#fff"/>
    <path id="Path_46" data-name="Path 46" d="M884.431,367.091a2.439,2.439,0,0,0,2.5-.3,2.558,2.558,0,0,0,.947-1.613c1.214-7,2.693-26.411,3.545-36.226a41.374,41.374,0,0,0-4.314-21.913l-3.146-4.326a2.469,2.469,0,0,0-2.957-.83s-9.821,10.19-9.857,10.583c-.154,1.689-1.323,5.433-7.415,11.526-6.666,6.666-6.7,12.484-6.556,14.109q.015.16.015.32a7.14,7.14,0,0,0,.294,2.154c2.792,8.8.606,19.342-2.906,30.342a2.481,2.481,0,0,0,1,2.692c1.026.7-.2-.338.161.111,2.42,2.965,5.9-1.168,9.886-5.677,1.388-1.571,2.961-3.351,4.814-5.205,2.549-2.549,7.418,3.267,9.683,3.267A10.514,10.514,0,0,1,884.431,367.091Z" transform="translate(-565.302 -203.512)" fill="#575a89"/>
    <path id="Path_47" data-name="Path 47" d="M891.934,325.7s6.36,5.364,2.747,12.32-3.133,12.087-3.133,12.087-.962,47.787-12.252,45.465L874.16,409.75l-9.275-3.348,5.363-12.506s-4.3-.267-3.041-3.194c.882-2.056,5.632-24.365,8.381-37.463,1.165-5.55,1.971-9.447,1.971-9.447S881.213,324.253,891.934,325.7Z" transform="translate(-571.454 -217.678)" fill="#575a89"/>
    <path id="Path_48" data-name="Path 48" d="M783.574,321.922,780,345.386l1.929-25.089Z" transform="translate(-461.761 -189.617)" opacity="0.2"/>
    <path id="Path_49" data-name="Path 49" d="M861.947,238.532s-2.044-15.91,14.636-10.693c0,0,11.913-2.186,15.82,12.716l3.956,15.621-1.928-1.049-.9,1.965-3.124.791-1.337-2.653-.647,3.222L862.836,261s11.46-6.778,11.642-18.925l-2.183,2.307Z" transform="translate(-569.668 -159.168)" fill="#2f2e41"/>
    <path id="Path_50" data-name="Path 50" d="M763.014,528.033l5.706-38.02-4.641,41.044Z" transform="translate(-451.706 -290.089)" opacity="0.2"/>
    <circle id="Ellipse_11" data-name="Ellipse 11" cx="6.434" cy="6.434" r="6.434" transform="translate(314.198 62.393)" fill="#2f2e41"/>
    <path id="Path_51" data-name="Path 51" d="M914.124,217.073a6.429,6.429,0,0,1,6.431-6.014c-.133-.017-.265-.037-.4-.046a6.434,6.434,0,0,0-.826,12.842c.135.009.269.005.4.006a6.429,6.429,0,0,1-5.608-6.788Z" transform="translate(-600.121 -149.821)" fill="#2f2e41"/>
    <path id="Path_52" data-name="Path 52" d="M732.651,337.6l-5.661,30.341,7.337-33.512Z" transform="translate(-430.38 -197.983)" opacity="0.2"/>
    <path id="Path_53" data-name="Path 53" d="M872.659,277.532l-3.3,2.488c-3.4-1.71-5.947-5.666-6.873-9.443l3.6-1.814C866.365,272.614,869.1,275.175,872.659,277.532Z" transform="translate(-570.035 -184.017)" fill="#70c041"/>
    <path id="Path_54" data-name="Path 54" d="M878.451,269.311h-8.221a.274.274,0,1,1,0-.548h8.221a.274.274,0,1,1,0,.548Z" transform="translate(-574.456 -184.016)" fill="#70c041"/>
    <path id="Path_55" data-name="Path 55" d="M886.35,281.508a.274.274,0,0,1-.254-.376l2.192-5.481a.274.274,0,0,1,.508.2l-2.192,5.481a.273.273,0,0,1-.254.172Z" transform="translate(-584 -187.993)" fill="#70c041"/>
    <ellipse id="Ellipse_12" data-name="Ellipse 12" cx="2.011" cy="2.815" rx="2.011" ry="2.815" transform="translate(302.537 82.903)" fill="#ffb8b8"/>
    <path id="Path_56" data-name="Path 56" d="M399.191,202.853l21.414,4.9,9.048-17.064-18.311-7.149Z" transform="translate(-236.322 -108.656)" fill="#2f2e41"/>
    <path id="Path_57" data-name="Path 57" d="M549.46,510.418s-6.884,15.775-6.884,20.364c0,0,2.725,12.476,1.864,15.918l-3.012,6.453-6.31-2.581L533.4,533.363l.287-27.534Z" transform="translate(-375.214 -324.36)" fill="#ffb9b9"/>
    <path id="Path_58" data-name="Path 58" d="M581.193,282.051s.574,9.465-.574,12.333,4.3,8.318,4.3,8.318l8.6-11.186s-5.736-5.736-4.3-12.046Z" transform="translate(-403.075 -190.355)" fill="#ffb9b9"/>
    <path id="Path_59" data-name="Path 59" d="M532.83,445.8s-8.318,15.488-.287,14.341,5.306-14.771,5.306-14.771" transform="translate(-372.637 -288.57)" fill="#e6e6e6"/>
    <path id="Path_60" data-name="Path 60" d="M397.65,321.066l2.725-27.1-.143-16.492-6.31,1.147v15.2l-1.29,27.678" transform="translate(-232.439 -164.263)" fill="#ffb9b9"/>
    <path id="Path_61" data-name="Path 61" d="M523.748,603.5l12.333-4.876L537.515,623s2.581,7.457,1.721,10.326c0,0,.574,4.876-.86,5.163s-5.45.86-5.736.574-.287-1.147-.287-1.147-2.868,2.008-3.155,4.3c0,0-12.046,3.729-12.333.287s6.023-6.31,6.023-6.31l4.876-7.457Z" transform="translate(-365.42 -379.295)" fill="#2f2e41"/>
    <path id="Path_62" data-name="Path 62" d="M612.377,510.418s-6.884,15.775-6.884,20.364c0,0,2.725,12.476,1.864,15.918l-3.012,6.453-6.31-2.581-1.721-17.209.287-27.534Z" transform="translate(-412.461 -324.361)" fill="#ffb9b9"/>
    <path id="Path_63" data-name="Path 63" d="M587.72,603.5l12.333-4.876L601.487,623s2.581,7.457,1.721,10.325c0,0,.574,4.876-.86,5.163s-5.449.86-5.736.574-.287-1.147-.287-1.147-2.868,2.008-3.155,4.3c0,0-12.046,3.729-12.333.287s6.023-6.31,6.023-6.31l4.876-7.457Z" transform="translate(-403.292 -379.295)" fill="#2f2e41"/>
    <path id="Path_64" data-name="Path 64" d="M585.148,256.312a9.179,9.179,0,0,1-18.134,2.008,8.9,8.9,0,0,1-.225-2.008,9.179,9.179,0,0,1,18.359,0Z" transform="translate(-394.981 -171.211)" fill="#ffb9b9"/>
    <path id="Path_65" data-name="Path 65" d="M560.468,309.251l7.122-3.7,3.2,2.551s7.744-.287,10.612,3.155,4.446,12.19,4.446,12.19-9.465-2.008-8.318,6.023l-1.721-4.589-1.577,3.872-19.217,6.6-8.6-14.628s-5.736-1.721-7.744,2.294c0,0,.43-14.484,6.023-14.914,3.761-.289,6.6-.287,6.6-.287l3.155-.574,2.02-.717Z" transform="translate(-378.335 -205.796)" fill="#575a89"/>
    <path id="Path_66" data-name="Path 66" d="M567.664,387.415s15.058,45.173,10.756,51.483c0,0-16.062,8.031-48.185-2.868l13.05-50.623A44.362,44.362,0,0,1,567.664,387.415Z" transform="translate(-373.341 -252.553)" fill="#2f2e41"/>
    <path id="Path_67" data-name="Path 67" d="M583.895,342.279l4.238-14.563c-5.084-5.529-.7-17.788-.7-17.788l-6.134-1.314s-6.156,16.6-12.466,14.592-2.868-14.914-2.868-14.914l-5.736.574L557.651,318.9l1.864,21.368A80.16,80.16,0,0,1,583.895,342.279Z" transform="translate(-389.571 -207.418)" fill="#575a89"/>
    <path id="Path_68" data-name="Path 68" d="M487.28,321.066l2.008-27.248.574-16.348-6.31,1.147v15.2L482.261,321.5" transform="translate(-285.5 -164.263)" fill="#ffb9b9"/>
    <path id="Path_69" data-name="Path 69" d="M622.461,445.8s-8.318,15.488-.287,14.341,5.306-14.771,5.306-14.771" transform="translate(-425.699 -288.57)" fill="#fff"/>
    <path id="Path_70" data-name="Path 70" d="M640.462,328.117s-1.02-14.73-9.544-14.679v17.034S637.307,326.683,640.462,328.117Z" transform="translate(-432.945 -210.465)" fill="#575a89"/>
    <path id="Path_71" data-name="Path 71" d="M596.141,269.323a.234.234,0,0,1-.146-.417l4.681-3.745a.234.234,0,0,1,.293.366l-4.681,3.745A.234.234,0,0,1,596.141,269.323Z" transform="translate(-412.219 -181.854)" fill="#70c041"/>
    <path id="Path_72" data-name="Path 72" d="M578.4,279.347c-.1.126-.206.253-.314.37a9.179,9.179,0,0,1-12.746-6.347l4.435-.816,8.624.816C576.424,275.775,576.663,276.608,578.4,279.347Z" transform="translate(-394.123 -186.26)" fill="#70c041"/>
    <path id="Path_73" data-name="Path 73" d="M557.782,236.281s-4.744.892-5.841,6.809a10.86,10.86,0,0,0-.093,3.021c.109,1.139-.049,3.544-2.522,6.376a61.991,61.991,0,0,0-4.5,5.782h0l4.957,1.32L552,251.377a42.012,42.012,0,0,1,4.909-11.283l.046-.073s1.646,4.4,6.059,5l-1.361-1.791a56.154,56.154,0,0,0,8.081,3.893,1.92,1.92,0,0,1,.62,3.339l-.063.049c-2.15,1.633-6.535,5.528-4.8,9.3s-.288,4.456-.288,4.456l3.725-1.417,1.705-.73-.172,1.261,8.324.174s2.249-.014-1.746-6.018a5.669,5.669,0,0,1-.173-3.971,9.136,9.136,0,0,0,.923-4.186C577.53,243.323,574.98,231.008,557.782,236.281Z" transform="translate(-381.977 -164.029)" fill="#2f2e41"/>
    <path id="Path_74" data-name="Path 74" d="M244.061,567.191s0,38.948-8.939,49.164c0,0-1.915,5.108-2.554,7.023a26.85,26.85,0,0,1-1.277,3.193v2.554s-17.239-1.916-19.155-6.385l3.192-3.831s.639-.638,0-2.554a1.312,1.312,0,0,1,1.277-1.916l4.469-10.216-.638-42.14,3.193-58.1,27.455-1.277Z" transform="translate(-185.026 -322.51)" fill="#2f2e41"/>
    <path id="Path_75" data-name="Path 75" d="M193.871,799.468s4.469,13.408,0,14.047-43.418,1.277-42.779-3.831,13.408-4.469,13.408-4.469l13.408-8.3Z" transform="translate(-148.883 -496.683)" fill="#2f2e41"/>
    <path id="Path_76" data-name="Path 76" d="M286.278,505.833a28.972,28.972,0,0,1-3.831,17.239c-5.108,8.939-1.915,38.948-1.915,38.948l45.333,39.587s-8.939,15.324-12.131,14.685-53.634-41.5-53.634-41.5l-19.793-66.4Z" transform="translate(-201.702 -324.363)" fill="#2f2e41"/>
    <path id="Path_77" data-name="Path 77" d="M426.067,736.429s13.718,3.4,11.864,7.52-22.165,37.356-26.138,34.082,3.4-13.718,3.4-13.718l.167-15.769Z" transform="translate(-302.528 -460.876)" fill="#2f2e41"/>
    <path id="Path_78" data-name="Path 78" d="M285.325,193.446A14.691,14.691,0,0,1,267.8,207.851a14.248,14.248,0,0,1-3.773-1.3,14.676,14.676,0,0,1-7.645-9.6,14.466,14.466,0,0,1-.427-3.511,14.686,14.686,0,1,1,29.371,0Z" transform="translate(-210.966 -130.735)" fill="#a0616a"/>
    <path id="Path_79" data-name="Path 79" d="M296.988,227.453l-.65,18.9-12.357,4.882s-1.212-19.35-2.922-20.422S296.988,227.453,296.988,227.453Z" transform="translate(-225.759 -159.561)" fill="#a0616a"/>
    <path id="Path_80" data-name="Path 80" d="M250.056,267.322s17.239-17.239,21.709-16.6,4.469,2.554,4.469,3.831-1.277,1.916,0,2.554,2.554,0,2.554,1.915,11.493,21.07,7.662,42.141-8.3,31.286-6.385,42.779.638,14.047.638,14.047-47.887,3.831-48.526-.639,1.915-1.915-1.277-5.108-1.915-3.192-1.915-5.108S243.032,267.322,250.056,267.322Z" transform="translate(-194.851 -173.326)" fill="#575a89"/>
    <path id="Path_81" data-name="Path 81" d="M280.508,495.93s-7.662,18.517-13.408,14.047,2.554-19.793,2.554-19.793Z" transform="translate(-216.364 -315.098)" fill="#fff"/>
    <path id="Path_82" data-name="Path 82" d="M301.038,294.4s15,1.717,9.416,29.272-27.294,59.479-27.294,59.479l-14.685-7.023,19.155-37.671-4.469-23.625S280.607,292.48,301.038,294.4Z" transform="translate(-218.379 -199.123)" fill="#575a89"/>
    <path id="Path_83" data-name="Path 83" d="M139.945,342.279,118.874,377.4l1.916,1.916Z" transform="translate(-70.374 -202.63)" opacity="0.2"/>
    <path id="Path_84" data-name="Path 84" d="M173.332,382.389l-16.9,27.691h5.747Z" transform="translate(-92.609 -226.375)" opacity="0.2"/>
    <rect id="Rectangle_15" data-name="Rectangle 15" width="0.909" height="47.149" transform="translate(41.701 206.661) rotate(-20.877)" opacity="0.2"/>
    <circle id="Ellipse_13" data-name="Ellipse 13" cx="0.908" cy="0.908" r="0.908" transform="translate(54.387 95.686)" fill="#d0cde1"/>
    <line id="Line_1" data-name="Line 1" x1="7.721" y2="24.978" transform="translate(47.574 96.594)" fill="none"/>
    <path id="Path_85" data-name="Path 85" d="M261.635,322.575a.454.454,0,0,0,.434-.32l7.721-24.978a.454.454,0,1,0-.867-.268L261.2,321.987a.455.455,0,0,0,.434.588Z" transform="translate(-214.06 -200.548)" fill="#d0cde1"/>
    <path id="Path_86" data-name="Path 86" d="M267.13,228.17l-3.67,3.491c-3.78-1.9-7.43-7.027-8.461-11.227l4.815-2.018C260.129,222.7,263.169,225.548,267.13,228.17Z" transform="translate(-210.401 -154.211)" fill="#70c041"/>
    <path id="Path_87" data-name="Path 87" d="M274.147,220.245a.307.307,0,0,1-.043,0l-8.535-1.219a.3.3,0,0,1,.086-.6l8.535,1.219a.3.3,0,0,1-.042.607Z" transform="translate(-216.503 -154.211)" fill="#70c041"/>
    <path id="Path_88" data-name="Path 88" d="M283.542,234.134a.3.3,0,0,1-.266-.454l2.828-5.034a.3.3,0,0,1,.531.3l-2.828,5.034a.3.3,0,0,1-.266.155Z" transform="translate(-227.117 -160.175)" fill="#70c041"/>
    <path id="Path_89" data-name="Path 89" d="M277.565,192.347a21.141,21.141,0,0,0-3.857-1.149,10.09,10.09,0,0,1-6.7-11.312,5.772,5.772,0,0,0,.242-1.864c-.172-1.395-1.6-2.295-2.968-2.614a29.212,29.212,0,0,1-4.133-.787,6.26,6.26,0,0,1-3.652-5.019,10.369,10.369,0,0,1,1.385-6.249l.494,1.423a5.276,5.276,0,0,0,1.615-2.416,3.328,3.328,0,0,1,2.536,2.039c.793.468.908-1.454,1.784-1.737a1.574,1.574,0,0,1,1.094.27c1.766.824,3.818.119,5.713-.337a21.5,21.5,0,0,1,9.983-.012,11.949,11.949,0,0,1,5.9,3.036,14.156,14.156,0,0,1,2.76,4.743c1.674,4.212,2.779,8.77,2.227,13.269a18.782,18.782,0,0,1-4.426,9.951c-1.264,1.456-5.387,6.536-7.648,5.669C277.07,198.161,280.911,194.117,277.565,192.347Z" transform="translate(-211.244 -120.813)" fill="#2f2e41"/>
    <path id="Path_91" data-name="Path 91" d="M404.2,676.136s.282-5.9,6.058-5.217" transform="translate(-129.924 -347.355)" fill="#3f3d56"/>
    <circle id="Ellipse_14" data-name="Ellipse 14" cx="2.891" cy="2.891" r="2.891" transform="translate(269.753 317.381)" fill="#70c041"/>
    <rect id="Rectangle_16" data-name="Rectangle 16" width="0.816" height="5.712" transform="translate(272.174 325.14)" fill="#3f3d56"/>
  </g>
</svg>
