<svg xmlns="http://www.w3.org/2000/svg" width="420.354" height="251.294" viewBox="0 0 420.354 251.294">
  <g id="Group_8" data-name="Group 8" transform="translate(0 0)">
    <path id="Path_92" data-name="Path 92" d="M822.61,618.128c-5.382-4.547-8.651-11.731-7.793-18.724s6.167-13.422,13.054-14.907,14.739,2.626,16.83,9.354c1.151-12.971,2.478-26.486,9.374-37.532a39.748,39.748,0,0,1,28.782-18.439c11.722-1.28,24.063,3.555,31.373,12.807s9.1,22.7,3.98,33.324c-3.772,7.825-10.721,13.648-18,18.385a116.177,116.177,0,0,1-79.458,17.383Z" transform="translate(-500.777 -369.657)" fill="#f2f2f2"/>
    <path id="Path_93" data-name="Path 93" d="M936.385,545.725a191.7,191.7,0,0,0-56.327,76.164c-.537,1.317,1.6,1.89,2.132.588a189.566,189.566,0,0,1,55.758-75.189c1.1-.9-.469-2.455-1.563-1.563Z" transform="translate(-534.522 -373.679)" fill="#fff"/>
    <path id="Path_94" data-name="Path 94" d="M300.319,583.428c7.392-6.246,11.882-16.113,10.7-25.718s-8.47-18.436-17.93-20.475-20.243,3.607-23.117,12.847c-1.581-17.816-3.4-36.378-12.876-51.55-8.577-13.738-23.432-23.568-39.532-25.326s-33.05,4.883-43.091,17.591-12.5,31.181-5.467,45.77c5.18,10.747,14.725,18.745,24.725,25.252a159.57,159.57,0,0,0,109.136,23.875" transform="translate(-165 -336.193)" fill="#f2f2f2"/>
    <path id="Path_95" data-name="Path 95" d="M214.718,483.982a261.074,261.074,0,0,1,36.384,36.13A264.815,264.815,0,0,1,279.8,562.577a263.735,263.735,0,0,1,12.287,26.017c.738,1.808-2.2,2.6-2.928.807a259.147,259.147,0,0,0-23.679-44.8,260.776,260.776,0,0,0-31.758-39.232,260.148,260.148,0,0,0-21.146-19.237c-1.516-1.235.644-3.372,2.147-2.147Z" transform="translate(-189.319 -341.717)" fill="#fff"/>
    <path id="Path_96" data-name="Path 96" d="M600.855,440.694H424.5V259.748a69.9,69.9,0,0,1,69.817-69.817h36.721a69.9,69.9,0,0,1,69.817,69.817Z" transform="translate(-299.119 -189.931)" fill="#f2f2f2"/>
    <path id="Path_97" data-name="Path 97" d="M564.135,440.7H424.5V259.75a69.277,69.277,0,0,1,13.333-41.042c.321-.437.641-.869.971-1.3a69.8,69.8,0,0,1,14.859-14.423c.319-.232.639-.46.963-.688a69.653,69.653,0,0,1,15.206-7.952c.319-.121.644-.242.97-.359a69.588,69.588,0,0,1,15.031-3.544c.318-.043.644-.077.97-.111a70.682,70.682,0,0,1,15.029,0c.325.034.652.068.973.112a69.571,69.571,0,0,1,15.027,3.544c.325.116.65.238.971.359a69.479,69.479,0,0,1,15.03,7.835c.324.223.649.451.969.679a70.542,70.542,0,0,1,8.882,7.52,69.717,69.717,0,0,1,6.148,7.03c.329.425.649.857.969,1.293a69.277,69.277,0,0,1,13.334,41.043Z" transform="translate(-299.118 -189.933)" fill="#2f2e41"/>
    <circle id="Ellipse_15" data-name="Ellipse 15" cx="7.731" cy="7.731" r="7.731" transform="translate(245.931 154.372)" fill="#70c041"/>
    <path id="Path_98" data-name="Path 98" d="M585.248,483.343h-5.924l-2.818-22.848h8.743Z" transform="translate(-297.958 -237.999)" fill="#ffb8b8"/>
    <path id="Path_99" data-name="Path 99" d="M565.888,504.28h11.424v7.193H558.7a7.193,7.193,0,0,1,7.193-7.193Z" transform="translate(-288.753 -260.629)" fill="#575a89"/>
    <path id="Path_100" data-name="Path 100" d="M646.248,483.343h-5.924l-2.818-22.848h8.743Z" transform="translate(-329.485 -237.999)" fill="#ffb8b8"/>
    <path id="Path_101" data-name="Path 101" d="M626.888,504.28h11.424v7.193H619.695a7.193,7.193,0,0,1,7.193-7.193Z" transform="translate(-320.28 -260.629)" fill="#575a89"/>
    <path id="Path_102" data-name="Path 102" d="M697.14,461.045a5.19,5.19,0,0,1,2.179-7.655l20.136-55.5,9.908,5.408-22.991,53.038a5.219,5.219,0,0,1-9.233,4.71Z" transform="translate(-439.565 -297.411)" fill="#ffb8b8"/>
    <path id="Path_103" data-name="Path 103" d="M806.168,479a5.19,5.19,0,0,1-1.4-7.835l-6.238-58.709,11.276.515,2.592,57.748A5.219,5.219,0,0,1,806.169,479Z" transform="translate(-492.432 -304.94)" fill="#ffb8b8"/>
    <circle id="Ellipse_16" data-name="Ellipse 16" cx="11.867" cy="11.867" r="11.867" transform="translate(283.882 66.465)" fill="#ffb8b8"/>
    <path id="Path_104" data-name="Path 104" d="M775.91,451.808H740.133l.043-.278c.064-.416,6.376-41.764,1.721-55.292a5.708,5.708,0,0,1,2.933-7.046h0c6.654-3.134,19.427-6.992,30.208,2.372a13.642,13.642,0,0,1,4.57,11.3Z" transform="translate(-462.248 -291.098)" fill="#70c041"/>
    <path id="Path_105" data-name="Path 105" d="M737.125,420.12l-16.107-3.268,7.55-17.892a6.763,6.763,0,1,1,13.1,3.381Z" transform="translate(-452.369 -295.342)" fill="#70c041"/>
    <path id="Path_106" data-name="Path 106" d="M795.872,427.527l-.968-22.2c-.734-4.173,1.654-8.117,5.328-8.762s7.263,2.252,8,6.455l3.64,20.741Z" transform="translate(-490.487 -296.681)" fill="#70c041"/>
    <path id="Path_107" data-name="Path 107" d="M772.658,517.049c5.757,21.924,6.385,49.8,4.832,80.205l-7.731-.966-14.012-57.98-7.731,58.946-8.7-.483c-2.6-31.9-5.128-59.292-.966-77.307Z" transform="translate(-460.187 -358.996)" fill="#575a89"/>
    <path id="Path_108" data-name="Path 108" d="M769.685,342.681a3.833,3.833,0,0,1-6.614-2.129,3.885,3.885,0,0,1,0-.752c.149-1.427.973-2.723.776-4.229a2.218,2.218,0,0,0-.406-1.038c-1.764-2.362-5.905,1.057-7.57-1.082-1.021-1.311.179-3.376-.6-4.842-1.034-1.934-4.1-.98-6.017-2.04-2.137-1.179-2.009-4.457-.6-6.452a10.149,10.149,0,0,1,7.694-3.917,20.638,20.638,0,0,1,8.693,1.7c3.151,1.228,6.275,2.925,8.214,5.7,2.358,3.369,2.585,7.9,1.406,11.838C773.941,337.827,771.493,340.755,769.685,342.681Z" transform="translate(-466.117 -255.177)" fill="#575a89"/>
    <path id="Path_110" data-name="Path 110" d="M563.452,443.83H500.641a3.124,3.124,0,0,1-3.141-3.1V300.53a3.124,3.124,0,0,1,3.141-3.1h62.812a3.124,3.124,0,0,1,3.141,3.1v140.2A3.124,3.124,0,0,1,563.452,443.83Z" transform="translate(-336.847 -245.49)" fill="#fff"/>
    <rect id="Rectangle_17" data-name="Rectangle 17" width="69.093" height="0.966" transform="translate(160.653 97.305)" fill="#ccc"/>
    <rect id="Rectangle_18" data-name="Rectangle 18" width="69.093" height="0.966" transform="translate(160.894 152.439)" fill="#ccc"/>
    <rect id="Rectangle_19" data-name="Rectangle 19" width="0.966" height="146.882" transform="translate(182.395 51.94)" fill="#ccc"/>
    <rect id="Rectangle_20" data-name="Rectangle 20" width="0.966" height="146.882" transform="translate(206.553 51.94)" fill="#ccc"/>
  </g>
</svg>
